<svg width="80" height="85" viewBox="0 0 80 85" fill="none" xmlns="http://www.w3.org/2000/svg">
<g clip-path="url(#clip0_2365_2467)">
<path d="M34 0.5C37.96 0.5 41.92 0.5 46 0.5C46 11.72 46 22.94 46 34.5C54.3837 28.5864 54.3837 28.5864 62.7529 22.6523C71.5556 16.5 71.5556 16.5 76 16.5C77.32 19.8 78.64 23.1 80 26.5C64.16 34.42 64.16 34.42 48 42.5C58.56 48.44 69.12 54.38 80 60.5C78.68 63.8 77.36 67.1 76 70.5C64.738 64.4987 54.2383 58.1243 44 50.5C44.99 67.33 44.99 67.33 46 84.5C42.7 84.5 39.4 84.5 36 84.5C36 73.28 36 62.06 36 50.5C34.0252 51.9437 32.0503 53.3875 30.0156 54.875C27.4274 56.7505 24.8389 58.6255 22.25 60.5C20.948 61.4539 19.6461 62.4078 18.3047 63.3906C8.45312 70.5 8.45312 70.5 4 70.5C2.68 67.2 1.36 63.9 0 60.5C10.56 54.56 21.12 48.62 32 42.5C21.44 37.22 10.88 31.94 0 26.5C1.32 23.2 2.64 19.9 4 16.5C12.5206 17.66 18.7032 22.7478 25.5 27.625C27.306 28.8992 27.306 28.8992 29.1484 30.1992C32.1066 32.2887 35.0543 34.3929 38 36.5C37.34 35.18 36.68 33.86 36 32.5C35.5355 27.0748 35.1613 21.6845 34.875 16.25C34.7886 14.7418 34.7023 13.2336 34.6133 11.6797C34.401 7.95356 34.1995 4.22683 34 0.5Z" fill="#FF833B"/>
</g>
<defs>
<clipPath id="clip0_2365_2467">
<rect width="80" height="84" fill="white" transform="translate(0 0.5)"/>
</clipPath>
</defs>
</svg>
