<svg width="40" height="40" viewBox="0 0 40 40" fill="none" xmlns="http://www.w3.org/2000/svg">
<path fill-rule="evenodd" clip-rule="evenodd" d="M34.9954 10.3347C35.4522 10.3347 35.8903 10.1532 36.2133 9.83022L39.6697 6.37387C39.8109 6.23268 39.7377 5.99111 39.5419 5.95195L34.9311 5.02979L34.009 0.418995C33.9698 0.223199 33.7283 0.150056 33.5871 0.291247L30.1307 3.74761C29.8077 4.07063 29.6262 4.50874 29.6262 4.96556V8.38599L21.2394 16.7728C20.8494 16.6197 20.4248 16.5356 19.9805 16.5356C18.0779 16.5356 16.5356 18.0779 16.5356 19.9805C16.5356 21.883 18.0779 23.4254 19.9805 23.4254C21.883 23.4254 23.4254 21.883 23.4254 19.9805C23.4254 19.5362 23.3413 19.1115 23.1881 18.7216L31.5749 10.3347H34.9954Z" fill="#FF833B"/>
<path fill-rule="evenodd" clip-rule="evenodd" d="M2.75593 19.9805C2.75593 10.4676 10.4676 2.75594 19.9805 2.75594C21.6309 2.75594 23.2249 2.98768 24.7328 3.41953C25.4644 3.62905 26.2274 3.20581 26.4369 2.4742C26.6464 1.74258 26.2232 0.979635 25.4916 0.770109C23.7394 0.268308 21.8901 1.79037e-05 19.9805 1.79037e-05C8.94556 1.79037e-05 0 8.94557 0 19.9805C0 31.0154 8.94556 39.9609 19.9805 39.9609C31.0154 39.9609 39.9609 31.0154 39.9609 19.9805C39.9609 18.0708 39.6926 16.2215 39.1908 14.4694C38.9813 13.7378 38.2184 13.3145 37.4868 13.524C36.7551 13.7336 36.3319 14.4965 36.5414 15.2281C36.9733 16.7361 37.205 18.33 37.205 19.9805C37.205 29.4933 29.4933 37.205 19.9805 37.205C10.4676 37.205 2.75593 29.4933 2.75593 19.9805Z" fill="#FF833B"/>
<path fill-rule="evenodd" clip-rule="evenodd" d="M11.0237 19.9805C11.0237 15.0338 15.0338 11.0237 19.9805 11.0237C20.3298 11.0237 20.6738 11.0436 21.0117 11.0823C21.7678 11.1688 22.4509 10.6261 22.5374 9.86996C22.6239 9.11387 22.0812 8.43079 21.3251 8.34426C20.8834 8.29371 20.4347 8.26779 19.9805 8.26779C13.5117 8.26779 8.26778 13.5117 8.26778 19.9805C8.26778 26.4492 13.5117 31.6932 19.9805 31.6932C26.4492 31.6932 31.6932 26.4492 31.6932 19.9805C31.6932 19.5199 31.6665 19.0651 31.6146 18.6174C31.5268 17.8615 30.8429 17.3198 30.0869 17.4075C29.331 17.4952 28.7893 18.1792 28.877 18.9351C28.9167 19.2775 28.9372 19.6263 28.9372 19.9805C28.9372 24.9272 24.9272 28.9372 19.9805 28.9372C15.0338 28.9372 11.0237 24.9272 11.0237 19.9805Z" fill="#FF833B"/>
</svg>
