<svg width="48" height="48" viewBox="0 0 48 48" fill="none" xmlns="http://www.w3.org/2000/svg">
<path d="M23.5 34.4286V24.4286M23.5 24.4286C24.5014 24.4286 25.4731 24.3037 26.4 24.0686M23.5 24.4286C22.4986 24.4286 21.5269 24.3037 20.6 24.0686M27.85 38.3132C26.441 38.5765 24.9868 38.7143 23.5 38.7143C22.0132 38.7143 20.559 38.5765 19.15 38.3132M26.4 42.8514C25.447 42.9496 24.4794 43 23.5 43C22.5206 43 21.553 42.9496 20.6 42.8514M27.85 34.4286V34.0635C27.85 32.1913 29.1227 30.5905 30.7663 29.6509C35.0914 27.1786 38 22.5668 38 17.2857C38 9.39593 31.5081 3 23.5 3C15.4919 3 9 9.39593 9 17.2857C9 22.5668 11.9086 27.1786 16.2337 29.6509C17.8773 30.5905 19.15 32.1913 19.15 34.0635V34.4286" stroke="#FF833B" stroke-width="2.5" stroke-linecap="round" stroke-linejoin="round"/>
</svg>
